<svg width="333" height="55" viewBox="0 0 333 55" fill="none" xmlns="http://www.w3.org/2000/svg">
<path d="M9.08537 17.1951H29.6341V24.8781H9.08537V17.1951ZM9.81707 34.7561H33.0488V42.6829H0V0H32.2561V7.92683H9.81707V34.7561Z" fill="white"/>
<path d="M40.2958 42.6829V9.87805H57.0641C61.1698 9.87805 64.3812 10.6301 66.6983 12.1341C69.0154 13.5976 70.1739 15.6707 70.1739 18.3537C70.1739 21.0366 69.0763 23.1504 66.8812 24.6951C64.7267 26.1992 61.8609 26.9512 58.2836 26.9512L59.2592 24.7561C63.243 24.7561 66.2105 25.4878 68.1617 26.9512C70.1536 28.4146 71.1495 30.5488 71.1495 33.3537C71.1495 36.2398 70.0519 38.5163 67.8568 40.1829C65.6617 41.8496 62.308 42.6829 57.7958 42.6829H40.2958ZM49.0153 36.2195H57.0031C58.7511 36.2195 60.0519 35.935 60.9056 35.3659C61.7999 34.7561 62.2471 33.8415 62.2471 32.622C62.2471 31.3618 61.8405 30.4472 61.0275 29.8781C60.2145 29.2683 58.934 28.9634 57.1861 28.9634H49.0153V36.2195ZM49.0153 23.3537H56.2105C57.8771 23.3537 59.117 23.0488 59.93 22.439C60.7836 21.8293 61.2105 20.9553 61.2105 19.8171C61.2105 18.6382 60.7836 17.7642 59.93 17.1951C59.117 16.626 57.8771 16.3415 56.2105 16.3415H49.0153V23.3537Z" fill="white"/>
<path d="M97.8611 42.6829V36.2805L97.2513 34.8781V23.4146C97.2513 21.3821 96.6213 19.7968 95.3611 18.6585C94.1416 17.5203 92.2513 16.9512 89.6904 16.9512C87.9424 16.9512 86.2148 17.2358 84.5074 17.8049C82.8408 18.3333 81.418 19.065 80.2391 20L76.8245 13.3537C78.6131 12.0935 80.7676 11.1179 83.2879 10.4268C85.8083 9.73578 88.3692 9.39025 90.9709 9.39025C95.9709 9.39025 99.853 10.5691 102.617 12.9268C105.381 15.2846 106.764 18.9634 106.764 23.9634V42.6829H97.8611ZM87.8611 43.1707C85.3001 43.1707 83.105 42.7439 81.2757 41.8902C79.4465 40.9959 78.044 39.7968 77.0684 38.2927C76.0928 36.7886 75.605 35.1016 75.605 33.2317C75.605 31.2805 76.0725 29.5732 77.0074 28.1098C77.983 26.6463 79.5074 25.5081 81.5806 24.6951C83.6538 23.8415 86.357 23.4146 89.6904 23.4146H98.4099V28.9634H90.727C88.4912 28.9634 86.9465 29.3293 86.0928 30.061C85.2798 30.7927 84.8733 31.7073 84.8733 32.8049C84.8733 34.0244 85.3408 35 86.2757 35.7317C87.2513 36.4228 88.5725 36.7683 90.2391 36.7683C91.8245 36.7683 93.2473 36.4025 94.5074 35.6707C95.7676 34.8984 96.6822 33.7805 97.2513 32.3171L98.7148 36.7073C98.0237 38.8211 96.7635 40.4268 94.9343 41.5244C93.105 42.622 90.7473 43.1707 87.8611 43.1707Z" fill="white"/>
<path d="M138.258 42.6829L127.283 27.1342L135.027 22.561L149.478 42.6829H138.258ZM115.027 42.6829V9.87805H124.539V42.6829H115.027ZM121.734 30.2439V22.622H133.197V30.2439H121.734ZM135.941 27.3781L127.039 26.4024L138.563 9.87805H148.685L135.941 27.3781Z" fill="white"/>
<path d="M156.754 55C155.047 55 153.36 54.7358 151.693 54.2073C150.026 53.6789 148.665 52.9472 147.608 52.0122L151.083 45.2439C151.815 45.8943 152.648 46.4024 153.583 46.7683C154.559 47.1342 155.514 47.3171 156.449 47.3171C157.791 47.3171 158.848 46.9919 159.62 46.3415C160.433 45.7317 161.165 44.6951 161.815 43.2317L163.522 39.2073L164.254 38.1707L176.022 9.87805H185.169L170.352 44.6951C169.295 47.3374 168.075 49.4106 166.693 50.9146C165.352 52.4187 163.848 53.4756 162.181 54.0854C160.555 54.6951 158.746 55 156.754 55ZM162.364 43.9634L147.73 9.87805H157.547L168.888 37.3171L162.364 43.9634Z" fill="white"/>
<path d="M208.32 42.6829V36.2805L207.71 34.8781V23.4146C207.71 21.3821 207.08 19.7968 205.82 18.6585C204.6 17.5203 202.71 16.9512 200.149 16.9512C198.401 16.9512 196.674 17.2358 194.966 17.8049C193.3 18.3333 191.877 19.065 190.698 20L187.283 13.3537C189.072 12.0935 191.226 11.1179 193.747 10.4268C196.267 9.73578 198.828 9.39025 201.43 9.39025C206.43 9.39025 210.312 10.5691 213.076 12.9268C215.84 15.2846 217.222 18.9634 217.222 23.9634V42.6829H208.32ZM198.32 43.1707C195.759 43.1707 193.564 42.7439 191.734 41.8902C189.905 40.9959 188.503 39.7968 187.527 38.2927C186.552 36.7886 186.064 35.1016 186.064 33.2317C186.064 31.2805 186.531 29.5732 187.466 28.1098C188.442 26.6463 189.966 25.5081 192.039 24.6951C194.113 23.8415 196.816 23.4146 200.149 23.4146H208.869V28.9634H201.186C198.95 28.9634 197.405 29.3293 196.552 30.061C195.739 30.7927 195.332 31.7073 195.332 32.8049C195.332 34.0244 195.8 35 196.734 35.7317C197.71 36.4228 199.031 36.7683 200.698 36.7683C202.283 36.7683 203.706 36.4025 204.966 35.6707C206.226 34.8984 207.141 33.7805 207.71 32.3171L209.174 36.7073C208.482 38.8211 207.222 40.4268 205.393 41.5244C203.564 42.622 201.206 43.1707 198.32 43.1707Z" fill="white"/>
<path d="M232.498 42.6829V15.4878L234.632 17.6829H221.4V9.87805H253.046V17.6829H239.815L241.949 15.4878V42.6829H232.498Z" fill="white"/>
<path d="M272.113 43.1707C268.617 43.1707 265.508 42.439 262.784 40.9756C260.101 39.5122 257.967 37.5203 256.382 35C254.837 32.439 254.064 29.5325 254.064 26.2805C254.064 22.9878 254.837 20.0813 256.382 17.561C257.967 15 260.101 13.0081 262.784 11.5854C265.508 10.122 268.617 9.39025 272.113 9.39025C275.568 9.39025 278.658 10.122 281.382 11.5854C284.105 13.0081 286.239 14.9797 287.784 17.5C289.329 20.0203 290.101 22.9472 290.101 26.2805C290.101 29.5325 289.329 32.439 287.784 35C286.239 37.5203 284.105 39.5122 281.382 40.9756C278.658 42.439 275.568 43.1707 272.113 43.1707ZM272.113 35.3659C273.699 35.3659 275.121 35 276.382 34.2683C277.642 33.5366 278.638 32.5 279.369 31.1585C280.101 29.7764 280.467 28.1504 280.467 26.2805C280.467 24.3699 280.101 22.7439 279.369 21.4024C278.638 20.061 277.642 19.0244 276.382 18.2927C275.121 17.561 273.699 17.1951 272.113 17.1951C270.528 17.1951 269.105 17.561 267.845 18.2927C266.585 19.0244 265.568 20.061 264.796 21.4024C264.064 22.7439 263.699 24.3699 263.699 26.2805C263.699 28.1504 264.064 29.7764 264.796 31.1585C265.568 32.5 266.585 33.5366 267.845 34.2683C269.105 35 270.528 35.3659 272.113 35.3659Z" fill="white"/>
<path d="M315.973 43.1707C313.209 43.1707 310.79 42.561 308.717 41.3415C306.643 40.122 305.017 38.2724 303.839 35.7927C302.7 33.2724 302.131 30.1016 302.131 26.2805C302.131 22.4187 302.68 19.248 303.778 16.7683C304.875 14.2886 306.461 12.439 308.534 11.2195C310.607 10 313.087 9.39025 315.973 9.39025C319.062 9.39025 321.826 10.1016 324.265 11.5244C326.745 12.9065 328.696 14.8577 330.119 17.3781C331.583 19.8984 332.314 22.8659 332.314 26.2805C332.314 29.7358 331.583 32.7236 330.119 35.2439C328.696 37.7642 326.745 39.7155 324.265 41.0976C321.826 42.4797 319.062 43.1707 315.973 43.1707ZM296.583 54.5122V9.87805H305.668V16.5854L305.485 26.3415L306.095 36.0366V54.5122H296.583ZM314.326 35.3659C315.912 35.3659 317.314 35 318.534 34.2683C319.794 33.5366 320.79 32.5 321.522 31.1585C322.294 29.7764 322.68 28.1504 322.68 26.2805C322.68 24.3699 322.294 22.7439 321.522 21.4024C320.79 20.061 319.794 19.0244 318.534 18.2927C317.314 17.561 315.912 17.1951 314.326 17.1951C312.741 17.1951 311.318 17.561 310.058 18.2927C308.798 19.0244 307.802 20.061 307.07 21.4024C306.339 22.7439 305.973 24.3699 305.973 26.2805C305.973 28.1504 306.339 29.7764 307.07 31.1585C307.802 32.5 308.798 33.5366 310.058 34.2683C311.318 35 312.741 35.3659 314.326 35.3659Z" fill="white"/>
</svg>
