<svg width="712" height="52" viewBox="0 0 712 52" fill="none" xmlns="http://www.w3.org/2000/svg">
<path d="M7.48943 21.1188H24.4286V27.3946H7.48943V21.1188ZM8.0926 35.4636H27.2434V41.9387H0V7.0728H26.59V13.5479H8.0926V35.4636Z" fill="white"/>
<path d="M33.2174 41.9387V15.1418H47.0402C50.4247 15.1418 53.072 15.7561 54.982 16.9847C56.8921 18.1801 57.8471 19.8736 57.8471 22.0651C57.8471 24.2567 56.9423 25.9834 55.1328 27.2452C53.3568 28.4738 50.9944 29.0881 48.0455 29.0881L48.8497 27.295C52.1337 27.295 54.5799 27.8927 56.1884 29.0881C57.8303 30.2835 58.6513 32.0268 58.6513 34.318C58.6513 36.6756 57.7466 38.5351 55.937 39.8966C54.1275 41.258 51.363 41.9387 47.6434 41.9387H33.2174ZM40.4053 36.659H46.9899C48.4309 36.659 49.5032 36.4266 50.2069 35.9617C50.9441 35.4636 51.3127 34.7165 51.3127 33.7203C51.3127 32.6909 50.9776 31.9438 50.3074 31.4789C49.6372 30.9808 48.5817 30.7318 47.1407 30.7318H40.4053V36.659ZM40.4053 26.1494H46.3365C47.7104 26.1494 48.7324 25.9004 49.4026 25.4023C50.1063 24.9042 50.4582 24.1903 50.4582 23.2605C50.4582 22.2976 50.1063 21.5837 49.4026 21.1188C48.7324 20.6539 47.7104 20.4215 46.3365 20.4215H40.4053V26.1494Z" fill="white"/>
<path d="M80.6708 41.9387V36.7088L80.1681 35.5632V26.1992C80.1681 24.539 79.6487 23.2439 78.6099 22.3142C77.6046 21.3844 76.0464 20.9195 73.9353 20.9195C72.4944 20.9195 71.0702 21.152 69.6628 21.6169C68.2889 22.0485 67.1161 22.6462 66.1443 23.41L63.3295 17.9808C64.8039 16.9515 66.5799 16.1545 68.6575 15.59C70.7351 15.0255 72.8462 14.7433 74.9909 14.7433C79.1126 14.7433 82.3127 15.7063 84.5914 17.6322C86.8701 19.5581 88.0094 22.5632 88.0094 26.6475V41.9387H80.6708ZM72.4274 42.3372C70.3162 42.3372 68.5067 41.9885 66.9988 41.2912C65.4908 40.5607 64.3348 39.5811 63.5305 38.3525C62.7263 37.1239 62.3242 35.7458 62.3242 34.2184C62.3242 32.6245 62.7095 31.2299 63.4803 30.0345C64.2845 28.8391 65.5411 27.9093 67.2501 27.2452C68.9591 26.5479 71.1875 26.1992 73.9353 26.1992H81.1231V30.7318H74.7898C72.9468 30.7318 71.6734 31.0307 70.9697 31.6284C70.2995 32.2261 69.9644 32.9732 69.9644 33.8697C69.9644 34.8659 70.3498 35.6628 71.1205 36.2605C71.9247 36.825 73.0138 37.1073 74.3877 37.1073C75.6946 37.1073 76.8674 36.8084 77.9062 36.2107C78.945 35.5798 79.699 34.6667 80.1681 33.4713L81.3745 37.0575C80.8048 38.7842 79.766 40.0958 78.258 40.9923C76.7501 41.8889 74.8065 42.3372 72.4274 42.3372Z" fill="white"/>
<path d="M113.972 41.9387L104.924 29.2375L111.308 25.5019L123.221 41.9387H113.972ZM94.821 41.9387V15.1418H102.662V41.9387H94.821ZM100.35 31.7778V25.5517H109.8V31.7778H100.35ZM112.062 29.4368L104.723 28.6398L114.223 15.1418H122.567L112.062 29.4368Z" fill="white"/>
<path d="M129.218 52C127.811 52 126.42 51.7842 125.047 51.3525C123.673 50.9208 122.55 50.3231 121.679 49.5594L124.544 44.0307C125.147 44.5619 125.834 44.977 126.605 45.2759C127.409 45.5747 128.196 45.7241 128.967 45.7241C130.073 45.7241 130.944 45.4585 131.581 44.9272C132.251 44.4291 132.854 43.5824 133.39 42.387L134.798 39.0996L135.401 38.2529L145.102 15.1418H152.642L140.428 43.5824C139.556 45.7407 138.551 47.4342 137.412 48.6628C136.306 49.8914 135.066 50.7548 133.692 51.2529C132.352 51.751 130.86 52 129.218 52ZM133.843 42.9847L121.779 15.1418H129.872L139.221 37.5556L133.843 42.9847Z" fill="white"/>
<path d="M171.726 41.9387V36.7088L171.224 35.5632V26.1992C171.224 24.539 170.704 23.2439 169.665 22.3142C168.66 21.3844 167.102 20.9195 164.991 20.9195C163.55 20.9195 162.126 21.152 160.718 21.6169C159.344 22.0485 158.172 22.6462 157.2 23.41L154.385 17.9808C155.859 16.9515 157.635 16.1545 159.713 15.59C161.791 15.0255 163.902 14.7433 166.046 14.7433C170.168 14.7433 173.368 15.7063 175.647 17.6322C177.926 19.5581 179.065 22.5632 179.065 26.6475V41.9387H171.726ZM163.483 42.3372C161.372 42.3372 159.562 41.9885 158.054 41.2912C156.546 40.5607 155.39 39.5811 154.586 38.3525C153.782 37.1239 153.38 35.7458 153.38 34.2184C153.38 32.6245 153.765 31.2299 154.536 30.0345C155.34 28.8391 156.597 27.9093 158.306 27.2452C160.015 26.5479 162.243 26.1992 164.991 26.1992H172.179V30.7318H165.845C164.002 30.7318 162.729 31.0307 162.025 31.6284C161.355 32.2261 161.02 32.9732 161.02 33.8697C161.02 34.8659 161.405 35.6628 162.176 36.2605C162.98 36.825 164.069 37.1073 165.443 37.1073C166.75 37.1073 167.923 36.8084 168.962 36.2107C170 35.5798 170.754 34.6667 171.224 33.4713L172.43 37.0575C171.86 38.7842 170.821 40.0958 169.314 40.9923C167.806 41.8889 165.862 42.3372 163.483 42.3372Z" fill="white"/>
<path d="M191.657 41.9387V19.7241L193.416 21.5172H182.509V15.1418H208.596V21.5172H197.689L199.448 19.7241V41.9387H191.657Z" fill="white"/>
<path d="M224.314 42.3372C221.432 42.3372 218.868 41.7395 216.623 40.5441C214.411 39.3487 212.652 37.7216 211.345 35.6628C210.072 33.5709 209.435 31.1967 209.435 28.5402C209.435 25.8506 210.072 23.4764 211.345 21.4176C212.652 19.3257 214.411 17.6986 216.623 16.5364C218.868 15.341 221.432 14.7433 224.314 14.7433C227.162 14.7433 229.709 15.341 231.954 16.5364C234.199 17.6986 235.958 19.3091 237.232 21.3678C238.505 23.4266 239.142 25.8174 239.142 28.5402C239.142 31.1967 238.505 33.5709 237.232 35.6628C235.958 37.7216 234.199 39.3487 231.954 40.5441C229.709 41.7395 227.162 42.3372 224.314 42.3372ZM224.314 35.9617C225.62 35.9617 226.793 35.6628 227.832 35.0651C228.871 34.4674 229.692 33.6207 230.295 32.5249C230.898 31.3959 231.2 30.0677 231.2 28.5402C231.2 26.9796 230.898 25.6513 230.295 24.5556C229.692 23.4598 228.871 22.613 227.832 22.0153C226.793 21.4176 225.62 21.1188 224.314 21.1188C223.007 21.1188 221.834 21.4176 220.795 22.0153C219.756 22.613 218.919 23.4598 218.282 24.5556C217.679 25.6513 217.377 26.9796 217.377 28.5402C217.377 30.0677 217.679 31.3959 218.282 32.5249C218.919 33.6207 219.756 34.4674 220.795 35.0651C221.834 35.6628 223.007 35.9617 224.314 35.9617Z" fill="white"/>
<path d="M260.469 42.3372C258.19 42.3372 256.196 41.8391 254.487 40.8429C252.778 39.8467 251.438 38.3359 250.466 36.3103C249.528 34.2516 249.059 31.6616 249.059 28.5402C249.059 25.3857 249.511 22.7957 250.416 20.7701C251.321 18.7446 252.628 17.2337 254.337 16.2375C256.046 15.2414 258.09 14.7433 260.469 14.7433C263.016 14.7433 265.294 15.3244 267.305 16.4866C269.349 17.6156 270.957 19.2095 272.13 21.2682C273.337 23.327 273.94 25.751 273.94 28.5402C273.94 31.3627 273.337 33.8033 272.13 35.8621C270.957 37.9208 269.349 39.5147 267.305 40.6437C265.294 41.7727 263.016 42.3372 260.469 42.3372ZM244.485 51.6015V15.1418H251.974V20.6207L251.823 28.59L252.326 36.5096V51.6015H244.485ZM259.112 35.9617C260.419 35.9617 261.575 35.6628 262.58 35.0651C263.619 34.4674 264.44 33.6207 265.043 32.5249C265.68 31.3959 265.998 30.0677 265.998 28.5402C265.998 26.9796 265.68 25.6513 265.043 24.5556C264.44 23.4598 263.619 22.613 262.58 22.0153C261.575 21.4176 260.419 21.1188 259.112 21.1188C257.805 21.1188 256.632 21.4176 255.593 22.0153C254.554 22.613 253.733 23.4598 253.13 24.5556C252.527 25.6513 252.225 26.9796 252.225 28.5402C252.225 30.0677 252.527 31.3959 253.13 32.5249C253.733 33.6207 254.554 34.4674 255.593 35.0651C256.632 35.6628 257.805 35.9617 259.112 35.9617Z" fill="white"/>
<path d="M297.34 52C295.932 52 294.542 51.7842 293.168 51.3525C291.794 50.9208 290.671 50.3231 289.8 49.5594L292.665 44.0307C293.268 44.5619 293.955 44.977 294.726 45.2759C295.53 45.5747 296.318 45.7241 297.089 45.7241C298.194 45.7241 299.066 45.4585 299.702 44.9272C300.372 44.4291 300.976 43.5824 301.512 42.387L302.919 39.0996L303.522 38.2529L313.223 15.1418H320.763L308.549 43.5824C307.678 45.7407 306.672 47.4342 305.533 48.6628C304.427 49.8914 303.187 50.7548 301.813 51.2529C300.473 51.751 298.982 52 297.34 52ZM301.964 42.9847L289.901 15.1418H297.993L307.342 37.5556L301.964 42.9847Z" fill="white"/>
<path d="M339.384 41.9387V7.0728H355.77C359.859 7.0728 363.042 7.85313 365.321 9.41379C367.599 10.9745 368.739 13.1992 368.739 16.0881C368.739 18.9438 367.666 21.1686 365.522 22.7625C363.377 24.3231 360.529 25.1035 356.977 25.1035L357.932 23.0115C361.886 23.0115 364.952 23.7918 367.13 25.3525C369.308 26.9132 370.397 29.1711 370.397 32.1264C370.397 35.1814 369.225 37.5888 366.879 39.3487C364.567 41.0754 361.182 41.9387 356.725 41.9387H339.384ZM347.477 35.9617H356.424C358.3 35.9617 359.725 35.5964 360.696 34.8659C361.668 34.1354 362.154 33.0064 362.154 31.4789C362.154 30.0179 361.668 28.9387 360.696 28.2414C359.725 27.5109 358.3 27.1456 356.424 27.1456H347.477V35.9617ZM347.477 21.5172H355.067C356.843 21.5172 358.183 21.1686 359.088 20.4713C359.993 19.7407 360.445 18.6782 360.445 17.2835C360.445 15.8889 359.993 14.8429 359.088 14.1456C358.183 13.4151 356.843 13.0498 355.067 13.0498H347.477V21.5172Z" fill="white"/>
<path d="M376.184 41.9387V15.1418H384.025V41.9387H376.184ZM380.104 11.4061C378.664 11.4061 377.491 10.9911 376.586 10.1609C375.681 9.33078 375.229 8.30141 375.229 7.0728C375.229 5.84419 375.681 4.81482 376.586 3.98468C377.491 3.15453 378.664 2.73946 380.104 2.73946C381.545 2.73946 382.718 3.13793 383.623 3.93487C384.528 4.6986 384.98 5.69477 384.98 6.92337C384.98 8.21839 384.528 9.29757 383.623 10.1609C382.752 10.9911 381.579 11.4061 380.104 11.4061Z" fill="white"/>
<path d="M391.549 41.9387V15.1418H399.34V25.6015H411.102V15.1418H418.943V41.9387H411.102V31.9272H399.34V41.9387H391.549Z" fill="white"/>
<path d="M426.45 41.9387V15.1418H434.241V25.6015H446.003V15.1418H453.844V41.9387H446.003V31.9272H434.241V41.9387H426.45Z" fill="white"/>
<path d="M461.35 41.9387V15.1418H469.141V31.0805L482.31 15.1418H489.498V41.9387H481.707V26L468.588 41.9387H461.35Z" fill="white"/>
<path d="M497.036 41.9387V15.1418H504.827V35.5632H515.734V15.1418H523.576V41.9387H497.036ZM520.208 47.7165V41.8391L522.017 41.9387H515.734V35.5632H527.496V47.7165H520.208Z" fill="white"/>
<path d="M532.377 41.9387V15.1418H540.218V41.9387H532.377ZM536.298 11.4061C534.857 11.4061 533.684 10.9911 532.779 10.1609C531.874 9.33078 531.422 8.30141 531.422 7.0728C531.422 5.84419 531.874 4.81482 532.779 3.98468C533.684 3.15453 534.857 2.73946 536.298 2.73946C537.739 2.73946 538.911 3.13793 539.816 3.93487C540.721 4.6986 541.173 5.69477 541.173 6.92337C541.173 8.21839 540.721 9.29757 539.816 10.1609C538.945 10.9911 537.772 11.4061 536.298 11.4061Z" fill="white"/>
<path d="M558.208 30.3333V25.5019H583.34V30.3333H558.208Z" fill="white"/>
<path d="M599.234 41.9387V36.7088L612.805 24.0077C613.877 23.0447 614.665 22.1814 615.168 21.4176C615.67 20.6539 616.005 19.9566 616.173 19.3257C616.374 18.6948 616.474 18.1137 616.474 17.5824C616.474 16.1877 615.989 15.1252 615.017 14.3946C614.079 13.6309 612.688 13.249 610.845 13.249C609.37 13.249 607.997 13.5313 606.723 14.0958C605.483 14.6603 604.428 15.5402 603.556 16.7356L597.625 12.9502C598.966 10.9579 600.842 9.38059 603.255 8.21839C605.668 7.0562 608.449 6.4751 611.599 6.4751C614.213 6.4751 616.491 6.90677 618.435 7.77012C620.412 8.60026 621.937 9.77906 623.009 11.3065C624.115 12.834 624.668 14.6603 624.668 16.7854C624.668 17.9144 624.517 19.0434 624.215 20.1724C623.947 21.2682 623.378 22.4304 622.506 23.659C621.669 24.8876 620.429 26.2656 618.787 27.7931L607.527 38.3027L605.969 35.364H625.824V41.9387H599.234Z" fill="white"/>
<path d="M628.242 34.6169V29.1877L644.829 7.0728H653.374L637.138 29.1877L633.167 28.0421H660.863V34.6169H628.242ZM647.191 41.9387V34.6169L647.443 28.0421V21.5172H655.133V41.9387H647.191Z" fill="white"/>
<path d="M660.858 46.9195L677.445 0H684.432L667.844 46.9195H660.858Z" fill="white"/>
<path d="M690.085 41.9387L704.259 10.1609L706.37 13.6475H687.421L691.04 9.86207V19.3257H683.802V7.0728H712V12.3027L698.931 41.9387H690.085Z" fill="white"/>
</svg>
