<?xml version="1.0" encoding="UTF-8"?>
<svg id="_Слой_1" data-name="Слой_1" xmlns="http://www.w3.org/2000/svg" version="1.1" viewBox="0 0 26.8 21.47">
  <!-- Generator: Adobe Illustrator 29.5.1, SVG Export Plug-In . SVG Version: 2.1.0 Build 141)  -->
  <defs>
    <style>
      .st0 {
        fill: #fff;
      }
    </style>
  </defs>
  <path class="st0" d="M13.4,11c-.18,0-.36-.05-.52-.15L.88,3.52c-.47-.29-.62-.9-.33-1.38.29-.47.9-.62,1.38-.33l11.48,7.01L24.88,1.82c.47-.29,1.09-.14,1.38.33.29.47.14,1.09-.33,1.38l-12,7.33c-.16.1-.34.15-.52.15Z"/>
  <path class="st0" d="M24.07,21.07H2.73c-1.29,0-2.33-1.05-2.33-2.33V2.73C.4,1.45,1.45.4,2.73.4h21.33c1.29,0,2.33,1.05,2.33,2.33v16c0,1.29-1.05,2.33-2.33,2.33ZM2.73,2.4c-.18,0-.33.15-.33.33v16c0,.18.15.33.33.33h21.33c.18,0,.33-.15.33-.33V2.73c0-.18-.15-.33-.33-.33H2.73Z"/>
</svg>