<svg width="332" height="42" viewBox="0 0 332 42" fill="none" xmlns="http://www.w3.org/2000/svg">
<path d="M5.92316 41.2253C4.8175 41.2253 3.72502 41.0542 2.64568 40.712C1.56635 40.3697 0.684456 39.8959 0 39.2904L2.25079 34.9073C2.72465 35.3285 3.26432 35.6575 3.8698 35.8945C4.5016 36.1314 5.12025 36.2498 5.72573 36.2498C6.59446 36.2498 7.27891 36.0392 7.77909 35.618C8.30559 35.2232 8.77945 34.5519 9.20066 33.6042L10.3063 30.998L10.7802 30.3267L18.4013 12.0043H24.3245L14.729 34.5519C14.0445 36.263 13.2548 37.6056 12.3597 38.5796C11.491 39.5537 10.5169 40.2381 9.43759 40.633C8.38458 41.0279 7.21309 41.2253 5.92316 41.2253ZM9.55605 34.078L0.0789676 12.0043H6.43651L13.7812 29.7738L9.55605 34.078Z" fill="white"/>
<path d="M38.9532 33.2488V5.60728H51.8263C55.0379 5.60728 57.5388 6.22592 59.3289 7.4632C61.1191 8.70049 62.0141 10.4643 62.0141 12.7546C62.0141 15.0185 61.1717 16.7823 59.4869 18.0459C57.8021 19.2832 55.5644 19.9019 52.774 19.9019L53.5242 18.2434C56.6306 18.2434 59.0394 18.862 60.7505 20.0993C62.4617 21.3366 63.3172 23.1267 63.3172 25.4697C63.3172 27.8916 62.3958 29.8002 60.5531 31.1954C58.7366 32.5643 56.0778 33.2488 52.5765 33.2488H38.9532ZM45.3108 28.5102H52.3396C53.8138 28.5102 54.9326 28.2207 55.6961 27.6415C56.4595 27.0623 56.8412 26.1673 56.8412 24.9563C56.8412 23.798 56.4595 22.9424 55.6961 22.3896C54.9326 21.8105 53.8138 21.5209 52.3396 21.5209H45.3108V28.5102ZM45.3108 17.0588H51.2734C52.6687 17.0588 53.7217 16.7823 54.4324 16.2295C55.1432 15.6504 55.4986 14.8079 55.4986 13.7023C55.4986 12.5966 55.1432 11.7674 54.4324 11.2146C53.7217 10.6354 52.6687 10.3458 51.2734 10.3458H45.3108V17.0588Z" fill="white"/>
<path d="M67.863 33.2488V12.0043H74.0231V33.2488H67.863ZM70.943 9.04272C69.811 9.04272 68.8896 8.71365 68.1788 8.05552C67.4681 7.39739 67.1127 6.58131 67.1127 5.60728C67.1127 4.63324 67.4681 3.81716 68.1788 3.15903C68.8896 2.5009 69.811 2.17183 70.943 2.17183C72.075 2.17183 72.9964 2.48774 73.7071 3.11954C74.4179 3.72502 74.7733 4.51478 74.7733 5.48881C74.7733 6.5155 74.4179 7.37107 73.7071 8.05552C73.0227 8.71365 72.1013 9.04272 70.943 9.04272Z" fill="white"/>
<path d="M79.9339 33.2488V12.0043H86.0545V20.2968H95.2947V12.0043H101.455V33.2488H95.2947V25.3117H86.0545V33.2488H79.9339Z" fill="white"/>
<path d="M107.352 33.2488V12.0043H113.472V20.2968H122.713V12.0043H128.873V33.2488H122.713V25.3117H113.472V33.2488H107.352Z" fill="white"/>
<path d="M134.77 33.2488V12.0043H140.89V24.6404L151.236 12.0043H156.883V33.2488H150.762V20.6127L140.456 33.2488H134.77Z" fill="white"/>
<path d="M162.804 33.2488V12.0043H168.925V28.1943H177.494V12.0043H183.654V33.2488H162.804ZM181.008 37.8294V33.1698L182.43 33.2488H177.494V28.1943H186.734V37.8294H181.008Z" fill="white"/>
<path d="M190.568 33.2488V12.0043H196.728V33.2488H190.568ZM193.648 9.04272C192.516 9.04272 191.595 8.71365 190.884 8.05552C190.173 7.39739 189.818 6.58131 189.818 5.60728C189.818 4.63324 190.173 3.81716 190.884 3.15903C191.595 2.5009 192.516 2.17183 193.648 2.17183C194.78 2.17183 195.702 2.48774 196.413 3.11954C197.123 3.72502 197.479 4.51478 197.479 5.48881C197.479 6.5155 197.123 7.37107 196.413 8.05552C195.728 8.71365 194.807 9.04272 193.648 9.04272Z" fill="white"/>
<path d="M210.861 24.0481V20.2178H230.605V24.0481H210.861Z" fill="white"/>
<path d="M243.091 33.2488V29.1025L253.753 19.0331C254.595 18.2697 255.214 17.5853 255.609 16.9798C256.003 16.3743 256.267 15.8215 256.398 15.3213C256.556 14.8211 256.635 14.3604 256.635 13.9392C256.635 12.8336 256.254 11.9911 255.49 11.412C254.753 10.8065 253.66 10.5038 252.213 10.5038C251.054 10.5038 249.975 10.7275 248.975 11.1751C248.001 11.6226 247.171 12.3202 246.487 13.2679L241.827 10.2668C242.88 8.68733 244.355 7.43688 246.25 6.5155C248.145 5.59411 250.33 5.13342 252.805 5.13342C254.858 5.13342 256.648 5.47565 258.175 6.16011C259.728 6.81824 260.926 7.75278 261.769 8.96374C262.637 10.1747 263.072 11.6226 263.072 13.3074C263.072 14.2025 262.953 15.0975 262.716 15.9926C262.506 16.8613 262.058 17.7827 261.374 18.7567C260.716 19.7308 259.742 20.8233 258.452 22.0342L249.606 30.3662L248.382 28.0364H263.98V33.2488H243.091Z" fill="white"/>
<path d="M265.879 27.4441V23.1399L278.91 5.60728H285.623L272.869 23.1399L269.749 22.2317H291.507V27.4441H265.879ZM280.766 33.2488V27.4441L280.964 22.2317V17.0588H287.005V33.2488H280.766Z" fill="white"/>
<path d="M291.503 37.1976L304.534 0H310.023L296.992 37.1976H291.503Z" fill="white"/>
<path d="M314.463 33.2488L325.599 8.05552L327.257 10.8197H312.37L315.214 7.81859V15.3213H309.527V5.60728H331.68V9.7535L321.413 33.2488H314.463Z" fill="white"/>
</svg>
