<svg width="17" height="28" viewBox="0 0 17 28" fill="none" xmlns="http://www.w3.org/2000/svg">
<path d="M13.8333 0.666504H3.16667C2.45942 0.666504 1.78115 0.947455 1.28105 1.44755C0.780951 1.94765 0.5 2.62593 0.5 3.33317V24.6665C0.5 25.3737 0.780951 26.052 1.28105 26.5521C1.78115 27.0522 2.45942 27.3332 3.16667 27.3332H13.8333C14.5406 27.3332 15.2189 27.0522 15.719 26.5521C16.219 26.052 16.5 25.3737 16.5 24.6665V3.33317C16.5 2.62593 16.219 1.94765 15.719 1.44755C15.2189 0.947455 14.5406 0.666504 13.8333 0.666504ZM9.83333 25.9998H7.16667V24.6665H9.83333V25.9998ZM13.8333 23.3332H3.16667V4.6665H13.8333V23.3332Z" fill="white"/>
</svg>
