<?xml version="1.0" encoding="UTF-8"?>
<svg id="_Слой_1" data-name="Слой_1" xmlns="http://www.w3.org/2000/svg" version="1.1" viewBox="0 0 23 30">
  <!-- Generator: Adobe Illustrator 29.5.1, SVG Export Plug-In . SVG Version: 2.1.0 Build 141)  -->
  <defs>
    <style>
      .st0 {
        fill: #fff;
        fill-rule: evenodd;
      }
    </style>
  </defs>
  <path class="st0" d="M10.77,29.67h1.47l1.33-1.66c1.74-2.18,3.84-4.97,5.52-7.85,1.62-2.8,3.08-6.08,3.08-9.16C22.17,4.86,17.64.33,11.5.33S.83,4.86.83,11c0,3.06,1.42,6.34,3.03,9.16,1.66,2.9,3.76,5.7,5.57,7.89l1.34,1.62ZM3.5,11c0,3.93,3.18,9.13,6.28,13.2.55.72,1.11,1.4,1.63,2.03l.08.1c.54-.67,1.09-1.39,1.66-2.15,3.07-4.09,6.34-9.25,6.34-13.19,0-4.67-3.33-8-8-8S3.5,6.33,3.5,11Z"/>
  <path class="st0" d="M11.5,14.22c.71,0,1.39-.28,1.89-.78.5-.5.78-1.18.78-1.89s-.28-1.39-.78-1.89c-.5-.5-1.18-.78-1.89-.78s-1.39.28-1.89.78c-.5.5-.78,1.18-.78,1.89s.28,1.39.78,1.89c.5.5,1.18.78,1.89.78Z"/>
</svg>