<svg width="23" height="30" viewBox="0 0 23 30" fill="none" xmlns="http://www.w3.org/2000/svg">
<path fill-rule="evenodd" clip-rule="evenodd" d="M10.7733 29.6668H12.2413L13.5666 28.0108C15.3079 25.8348 17.4079 23.0442 19.0826 20.1562C20.7053 17.3562 22.1666 14.0735 22.1666 11.0002C22.1666 4.86016 17.6399 0.333496 11.4999 0.333496C5.35992 0.333496 0.833252 4.86016 0.833252 11.0002C0.833252 14.0575 2.25059 17.3402 3.86125 20.1562C5.52125 23.0588 7.62125 25.8575 9.43059 28.0442L10.7733 29.6668ZM3.49992 11.0002C3.49992 14.9335 6.68125 20.1282 9.78259 24.2002C10.3293 24.9202 10.8893 25.5962 11.4159 26.2322L11.4999 26.3335C12.0359 25.6624 12.5901 24.9464 13.1626 24.1855C16.2373 20.0975 19.4999 14.9322 19.4999 11.0002C19.4999 6.3335 16.1666 3.00016 11.4999 3.00016C6.83325 3.00016 3.49992 6.3335 3.49992 11.0002Z" fill="white"/>
</svg>
